<svg width="60" height="60" viewBox="0 0 60 60" fill="none" xmlns="http://www.w3.org/2000/svg">
<rect width="60" height="60" rx="30" fill="#81B441"/>
<path d="M40.9091 15.3906C36.4942 10.2117 22.207 20.2425 22.3228 33.1733C22.3217 33.2523 22.3052 33.3297 22.2742 33.4022C22.2437 33.4744 22.1995 33.54 22.144 33.5954C22.0887 33.6513 22.0229 33.6957 21.9503 33.7261C21.8783 33.7571 21.8009 33.7736 21.7225 33.7747C21.6702 33.7742 21.619 33.7672 21.5688 33.7533C21.5187 33.74 21.4706 33.7197 21.4258 33.6941C21.381 33.6685 21.3394 33.637 21.302 33.6007C21.2652 33.5645 21.2327 33.5239 21.206 33.4796C20.8432 32.6883 20.555 31.865 20.3464 31.0198C20.1378 30.1746 20.0092 29.3118 19.9627 28.4426C19.9158 27.5734 19.951 26.7015 20.0679 25.8387C20.1842 24.9764 20.3821 24.1265 20.658 23.301C20.6996 23.1788 20.6975 23.0459 20.6516 22.9248C20.6063 22.8038 20.5205 22.7023 20.4086 22.6375C20.2968 22.5728 20.166 22.5489 20.0385 22.57C19.9115 22.5913 19.7952 22.6554 19.7098 22.7525C19.1213 23.3805 18.593 24.063 18.132 24.7902C17.671 25.5175 17.2799 26.2864 16.9629 27.0873C16.6465 27.8881 16.4059 28.7168 16.2442 29.5626C16.083 30.4086 16.0015 31.2679 16.0009 32.1291C15.9801 33.9566 16.3237 35.7698 17.0126 37.4623C17.7012 39.1542 18.7209 40.6915 20.0118 41.9839C21.3024 43.2759 22.8383 44.2969 24.5291 44.9869C26.2196 45.6762 28.0309 46.0204 29.8564 45.9991C49.3482 45.5562 44.8496 20.0104 40.9091 15.3906V15.3906Z" fill="white"/>
</svg>
